<svg width="600" height="668" viewBox="0 0 600 668" fill="none" xmlns="http://www.w3.org/2000/svg">
<path d="M500 134H380.333L457 57.6667C460.108 54.5587 462.573 50.869 464.255 46.8083C465.937 42.7476 466.803 38.3953 466.803 34C466.803 29.6047 465.937 25.2524 464.255 21.1917C462.573 17.131 460.108 13.4413 457 10.3333C453.892 7.22538 450.202 4.76001 446.142 3.078C442.081 1.39599 437.729 0.530273 433.333 0.530273C424.457 0.530273 415.943 4.05654 409.667 10.3333L300 118.667L261 52C258.811 48.1917 255.894 44.8517 252.414 42.1708C248.935 39.49 244.962 37.5207 240.721 36.3755C236.48 35.2302 232.056 34.9314 227.7 35.4961C223.344 36.0608 219.142 37.478 215.333 39.6667C211.525 41.8554 208.185 44.7727 205.504 48.2522C202.823 51.7317 200.854 55.7051 199.709 59.9457C198.564 64.1862 198.265 68.6108 198.829 72.9668C199.394 77.3229 200.811 81.525 203 85.3333L233.333 134H100C73.4784 134 48.043 144.536 29.2893 163.289C10.5357 182.043 1.52588e-05 207.478 1.52588e-05 234V500.667C1.52588e-05 527.188 10.5357 552.624 29.2893 571.377C48.043 590.131 73.4784 600.667 100 600.667V634C100 642.841 103.512 651.319 109.763 657.57C116.014 663.821 124.493 667.333 133.333 667.333C142.174 667.333 150.652 663.821 156.904 657.57C163.155 651.319 166.667 642.841 166.667 634V600.667H433.333V634C433.333 642.841 436.845 651.319 443.096 657.57C449.348 663.821 457.826 667.333 466.667 667.333C475.507 667.333 483.986 663.821 490.237 657.57C496.488 651.319 500 642.841 500 634V600.667C526.522 600.667 551.957 590.131 570.711 571.377C589.464 552.624 600 527.188 600 500.667V234C600 207.478 589.464 182.043 570.711 163.289C551.957 144.536 526.522 134 500 134ZM533.333 500.667C533.333 509.507 529.821 517.986 523.57 524.237C517.319 530.488 508.841 534 500 534H100C91.1595 534 82.681 530.488 76.4298 524.237C70.1786 517.986 66.6667 509.507 66.6667 500.667V234C66.6667 225.159 70.1786 216.681 76.4298 210.43C82.681 204.179 91.1595 200.667 100 200.667H500C508.841 200.667 517.319 204.179 523.57 210.43C529.821 216.681 533.333 225.159 533.333 234V500.667Z" fill="white"/>
</svg>
